{
	"asset":{
		"generator":"Khronos glTF Blender I/O v4.5.48",
		"version":"2.0"
	},
	"scene":0,
	"scenes":[
		{
			"name":"Scene",
			"nodes":[
				0,
				1,
				2,
				3,
				4,
				5,
				6,
				7,
				8,
				9,
				10,
				11,
				12,
				13,
				20,
				21,
				22
			]
		}
	],
	"nodes":[
		{
			"name":"Empty",
			"scale":[
				0.7500002384185791,
				1,
				0.7500002384185791
			]
		},
		{
			"mesh":0,
			"name":"floor tome",
			"translation":[
				0.4147266745567322,
				0,
				0.04943467676639557
			]
		},
		{
			"mesh":1,
			"name":"high tome",
			"translation":[
				-0.13710877299308777,
				0.8108450174331665,
				-0.14943712949752808
			]
		},
		{
			"mesh":2,
			"name":"mid tome",
			"translation":[
				0.15281717479228973,
				0.7883755564689636,
				-0.13750943541526794
			]
		},
		{
			"mesh":3,
			"name":"Cylinder.001",
			"translation":[
				-0.2729935348033905,
				0,
				0.09467542171478271
			]
		},
		{
			"mesh":4,
			"name":"drum kick",
			"translation":[
				7.10710883140564e-05,
				0,
				-0.270315945148468
			]
		},
		{
			"mesh":5,
			"name":"Cylinder.003",
			"translation":[
				-0.5381772518157959,
				0,
				0.13507354259490967
			]
		},
		{
			"mesh":6,
			"name":"Cylinder.004",
			"translation":[
				-0.4797285199165344,
				0,
				-0.2127077281475067
			]
		},
		{
			"mesh":7,
			"name":"Cylinder.005",
			"translation":[
				0.7076030969619751,
				0,
				0.1320335566997528
			]
		},
		{
			"mesh":8,
			"name":"Cylinder.006",
			"translation":[
				0.5363242626190186,
				0,
				-0.24541927874088287
			]
		},
		{
			"mesh":9,
			"name":"Cylinder.002",
			"translation":[
				-0.006948038935661316,
				0,
				-0.012491196393966675
			]
		},
		{
			"mesh":10,
			"name":"SM_plant_01",
			"translation":[
				1.1262853145599365,
				0,
				-0.286659836769104
			]
		},
		{
			"mesh":11,
			"name":"SM_couch_01",
			"translation":[
				1.4318547248840332,
				0,
				-1.4219651222229004
			]
		},
		{
			"mesh":12,
			"name":"SM_Character_Geovanni.001",
			"translation":[
				1.1758825778961182,
				-0.05330657958984375,
				-1.4820722341537476
			]
		},
		{
			"name":"lowArm_L",
			"rotation":[
				0.25391700863838196,
				0.018664324656128883,
				-0.33439892530441284,
				0.907389223575592
			],
			"scale":[
				0.9999998807907104,
				0.9999999403953552,
				1
			],
			"translation":[
				2.9802322387695312e-08,
				0.2991175055503845,
				-2.2351741790771484e-08
			]
		},
		{
			"children":[
				14
			],
			"name":"arm_L",
			"rotation":[
				0.9496784806251526,
				-0.21202452480793,
				-0.21202452480793,
				0.09056484699249268
			],
			"scale":[
				0.9999999403953552,
				0.9999999403953552,
				0.9999999403953552
			]
		},
		{
			"name":"lowArm_R",
			"rotation":[
				0.41785728931427,
				0.12942327558994293,
				0.0411309152841568,
				0.8983057141304016
			],
			"scale":[
				1,
				0.9999998807907104,
				1
			],
			"translation":[
				-3.725290298461914e-08,
				0.2991175949573517,
				1.043081283569336e-07
			]
		},
		{
			"children":[
				16
			],
			"name":"arm_R",
			"rotation":[
				0.9368153810501099,
				0.1438337117433548,
				-0.2630981206893921,
				0.18018947541713715
			],
			"scale":[
				1,
				0.9999999403953552,
				0.9999999403953552
			],
			"translation":[
				0.42264020442962646,
				0,
				0
			]
		},
		{
			"name":"neutral_bone",
			"rotation":[
				-0.7071067690849304,
				0,
				0,
				0.7071067690849304
			]
		},
		{
			"mesh":13,
			"name":"SM_Character_Geovanni",
			"skin":0
		},
		{
			"children":[
				19,
				15,
				17,
				18
			],
			"name":"Armature",
			"translation":[
				-0.21132010221481323,
				1.0947251319885254,
				0.890873372554779
			]
		},
		{
			"mesh":14,
			"name":"Cube",
			"translation":[
				0,
				0.25,
				0.86723792552948
			]
		},
		{
			"mesh":15,
			"name":"SM_bass_02",
			"translation":[
				1.484048843383789,
				0.7596093416213989,
				-1.5874840021133423
			]
		}
	],
	"animations":[
		{
			"channels":[
				{
					"sampler":0,
					"target":{
						"node":15,
						"path":"translation"
					}
				},
				{
					"sampler":1,
					"target":{
						"node":15,
						"path":"rotation"
					}
				},
				{
					"sampler":2,
					"target":{
						"node":15,
						"path":"scale"
					}
				},
				{
					"sampler":3,
					"target":{
						"node":14,
						"path":"translation"
					}
				},
				{
					"sampler":4,
					"target":{
						"node":14,
						"path":"rotation"
					}
				},
				{
					"sampler":5,
					"target":{
						"node":14,
						"path":"scale"
					}
				},
				{
					"sampler":6,
					"target":{
						"node":17,
						"path":"translation"
					}
				},
				{
					"sampler":7,
					"target":{
						"node":17,
						"path":"rotation"
					}
				},
				{
					"sampler":8,
					"target":{
						"node":17,
						"path":"scale"
					}
				},
				{
					"sampler":9,
					"target":{
						"node":16,
						"path":"translation"
					}
				},
				{
					"sampler":10,
					"target":{
						"node":16,
						"path":"rotation"
					}
				},
				{
					"sampler":11,
					"target":{
						"node":16,
						"path":"scale"
					}
				}
			],
			"name":"ArmatureAction",
			"samplers":[
				{
					"input":71,
					"interpolation":"STEP",
					"output":72
				},
				{
					"input":73,
					"interpolation":"LINEAR",
					"output":74
				},
				{
					"input":71,
					"interpolation":"STEP",
					"output":75
				},
				{
					"input":71,
					"interpolation":"STEP",
					"output":76
				},
				{
					"input":71,
					"interpolation":"STEP",
					"output":77
				},
				{
					"input":71,
					"interpolation":"STEP",
					"output":78
				},
				{
					"input":71,
					"interpolation":"STEP",
					"output":79
				},
				{
					"input":73,
					"interpolation":"LINEAR",
					"output":80
				},
				{
					"input":71,
					"interpolation":"STEP",
					"output":81
				},
				{
					"input":71,
					"interpolation":"STEP",
					"output":82
				},
				{
					"input":71,
					"interpolation":"STEP",
					"output":83
				},
				{
					"input":71,
					"interpolation":"STEP",
					"output":84
				}
			]
		}
	],
	"materials":[
		{
			"alphaMode":"BLEND",
			"doubleSided":true,
			"name":"M_Couch_Campfire_Plant.001",
			"pbrMetallicRoughness":{
				"baseColorTexture":{
					"index":0
				},
				"metallicFactor":0,
				"roughnessFactor":0.5
			}
		},
		{
			"doubleSided":true,
			"name":"M_Geovanni.001",
			"pbrMetallicRoughness":{
				"baseColorFactor":[
					0.5,
					0.5,
					0.5,
					1
				],
				"metallicFactor":0
			}
		},
		{
			"doubleSided":true,
			"name":"M_Geovanni",
			"pbrMetallicRoughness":{
				"baseColorFactor":[
					0.5,
					0.5,
					0.5,
					1
				],
				"metallicFactor":0
			}
		},
		{
			"doubleSided":true,
			"name":"Material.001",
			"pbrMetallicRoughness":{
				"baseColorFactor":[
					0.17012369632720947,
					0.17012369632720947,
					0.17012369632720947,
					1
				],
				"roughnessFactor":0.5
			}
		}
	],
	"meshes":[
		{
			"name":"Cube.005",
			"primitives":[
				{
					"attributes":{
						"POSITION":0,
						"NORMAL":1,
						"TEXCOORD_0":2
					},
					"indices":3,
					"material":0
				}
			]
		},
		{
			"name":"Cylinder.003",
			"primitives":[
				{
					"attributes":{
						"POSITION":4,
						"NORMAL":5,
						"TEXCOORD_0":6
					},
					"indices":7
				}
			]
		},
		{
			"name":"Cylinder.002",
			"primitives":[
				{
					"attributes":{
						"POSITION":8,
						"NORMAL":9,
						"TEXCOORD_0":10
					},
					"indices":11
				}
			]
		},
		{
			"name":"Cylinder.007",
			"primitives":[
				{
					"attributes":{
						"POSITION":12,
						"NORMAL":13,
						"TEXCOORD_0":14
					},
					"indices":15
				}
			]
		},
		{
			"name":"Cylinder.014",
			"primitives":[
				{
					"attributes":{
						"POSITION":16,
						"NORMAL":17,
						"TEXCOORD_0":18
					},
					"indices":19
				}
			]
		},
		{
			"name":"Cylinder.009",
			"primitives":[
				{
					"attributes":{
						"POSITION":20,
						"NORMAL":21,
						"TEXCOORD_0":22
					},
					"indices":23
				}
			]
		},
		{
			"name":"Cylinder.011",
			"primitives":[
				{
					"attributes":{
						"POSITION":24,
						"NORMAL":25,
						"TEXCOORD_0":26
					},
					"indices":27
				}
			]
		},
		{
			"name":"Cylinder.012",
			"primitives":[
				{
					"attributes":{
						"POSITION":28,
						"NORMAL":29,
						"TEXCOORD_0":30
					},
					"indices":31
				}
			]
		},
		{
			"name":"Cylinder.013",
			"primitives":[
				{
					"attributes":{
						"POSITION":32,
						"NORMAL":33,
						"TEXCOORD_0":34
					},
					"indices":35
				}
			]
		},
		{
			"name":"Cylinder.001",
			"primitives":[
				{
					"attributes":{
						"POSITION":36,
						"NORMAL":37,
						"TEXCOORD_0":38
					},
					"indices":39
				}
			]
		},
		{
			"name":"Cube.009",
			"primitives":[
				{
					"attributes":{
						"POSITION":40,
						"NORMAL":41,
						"TEXCOORD_0":42
					},
					"indices":43,
					"material":0
				}
			]
		},
		{
			"name":"Cube.008",
			"primitives":[
				{
					"attributes":{
						"POSITION":44,
						"NORMAL":45,
						"TEXCOORD_0":46
					},
					"indices":47,
					"material":0
				}
			]
		},
		{
			"name":"Mesh.001",
			"primitives":[
				{
					"attributes":{
						"POSITION":48,
						"NORMAL":49,
						"TEXCOORD_0":50
					},
					"indices":51,
					"material":1
				}
			]
		},
		{
			"name":"Mesh.002",
			"primitives":[
				{
					"attributes":{
						"POSITION":52,
						"NORMAL":53,
						"TEXCOORD_0":54,
						"JOINTS_0":55,
						"WEIGHTS_0":56
					},
					"indices":57,
					"material":2
				}
			]
		},
		{
			"name":"Cube.006",
			"primitives":[
				{
					"attributes":{
						"POSITION":59,
						"NORMAL":60,
						"TEXCOORD_0":61
					},
					"indices":62
				}
			]
		},
		{
			"name":"B\u00e9zierCurve.001",
			"primitives":[
				{
					"attributes":{
						"POSITION":63,
						"NORMAL":64,
						"TEXCOORD_0":65
					},
					"indices":66,
					"material":3
				},
				{
					"attributes":{
						"POSITION":67,
						"NORMAL":68,
						"TEXCOORD_0":69
					},
					"indices":70
				}
			]
		}
	],
	"textures":[
		{
			"sampler":0,
			"source":0
		}
	],
	"images":[
		{
			"mimeType":"image/png",
			"name":"textures",
			"uri":"textures.png"
		}
	],
	"skins":[
		{
			"inverseBindMatrices":58,
			"joints":[
				15,
				14,
				17,
				16,
				18
			],
			"name":"Armature"
		}
	],
	"accessors":[
		{
			"bufferView":0,
			"componentType":5126,
			"count":2040,
			"max":[
				0.27819758653640747,
				0.755500316619873,
				0.2672741711139679
			],
			"min":[
				-0.2796453833580017,
				-1.043081283569336e-07,
				-0.25625815987586975
			],
			"type":"VEC3"
		},
		{
			"bufferView":1,
			"componentType":5126,
			"count":2040,
			"type":"VEC3"
		},
		{
			"bufferView":2,
			"componentType":5126,
			"count":2040,
			"type":"VEC2"
		},
		{
			"bufferView":3,
			"componentType":5123,
			"count":3444,
			"type":"SCALAR"
		},
		{
			"bufferView":4,
			"componentType":5126,
			"count":1620,
			"max":[
				0.1295582354068756,
				0.15013901889324188,
				0.15995049476623535
			],
			"min":[
				-0.1295652836561203,
				-0.15013901889324188,
				-0.15995049476623535
			],
			"type":"VEC3"
		},
		{
			"bufferView":5,
			"componentType":5126,
			"count":1620,
			"type":"VEC3"
		},
		{
			"bufferView":6,
			"componentType":5126,
			"count":1620,
			"type":"VEC2"
		},
		{
			"bufferView":7,
			"componentType":5123,
			"count":2832,
			"type":"SCALAR"
		},
		{
			"bufferView":8,
			"componentType":5126,
			"count":1620,
			"max":[
				0.15676361322402954,
				0.1762772798538208,
				0.18963396549224854
			],
			"min":[
				-0.15676364302635193,
				-0.1762772798538208,
				-0.18963396549224854
			],
			"type":"VEC3"
		},
		{
			"bufferView":9,
			"componentType":5126,
			"count":1620,
			"type":"VEC3"
		},
		{
			"bufferView":10,
			"componentType":5126,
			"count":1620,
			"type":"VEC2"
		},
		{
			"bufferView":11,
			"componentType":5123,
			"count":2832,
			"type":"SCALAR"
		},
		{
			"bufferView":12,
			"componentType":5126,
			"count":1930,
			"max":[
				0.1779090166091919,
				0.7055908441543579,
				0.18682761490345
			],
			"min":[
				-0.21963849663734436,
				-4.030577838420868e-05,
				-0.20122618973255157
			],
			"type":"VEC3"
		},
		{
			"bufferView":13,
			"componentType":5126,
			"count":1930,
			"type":"VEC3"
		},
		{
			"bufferView":14,
			"componentType":5126,
			"count":1930,
			"type":"VEC2"
		},
		{
			"bufferView":15,
			"componentType":5123,
			"count":3252,
			"type":"SCALAR"
		},
		{
			"bufferView":16,
			"componentType":5126,
			"count":2164,
			"max":[
				0.31397348642349243,
				0.6279469132423401,
				0.19779999554157257
			],
			"min":[
				-0.31397342681884766,
				-1.1548399925231934e-07,
				-0.19780021905899048
			],
			"type":"VEC3"
		},
		{
			"bufferView":17,
			"componentType":5126,
			"count":2164,
			"type":"VEC3"
		},
		{
			"bufferView":18,
			"componentType":5126,
			"count":2164,
			"type":"VEC2"
		},
		{
			"bufferView":19,
			"componentType":5123,
			"count":3780,
			"type":"SCALAR"
		},
		{
			"bufferView":20,
			"componentType":5126,
			"count":994,
			"max":[
				0.21903599798679352,
				0.8054376244544983,
				0.26252490282058716
			],
			"min":[
				-0.17755387723445892,
				-0.0004621297412086278,
				-0.19299285113811493
			],
			"type":"VEC3"
		},
		{
			"bufferView":21,
			"componentType":5126,
			"count":994,
			"type":"VEC3"
		},
		{
			"bufferView":22,
			"componentType":5126,
			"count":994,
			"type":"VEC2"
		},
		{
			"bufferView":23,
			"componentType":5123,
			"count":1380,
			"type":"SCALAR"
		},
		{
			"bufferView":24,
			"componentType":5126,
			"count":542,
			"max":[
				0.2265281230211258,
				1.0171630382537842,
				0.21950793266296387
			],
			"min":[
				-0.22980786859989166,
				-4.030577838420868e-05,
				-0.23144979774951935
			],
			"type":"VEC3"
		},
		{
			"bufferView":25,
			"componentType":5126,
			"count":542,
			"type":"VEC3"
		},
		{
			"bufferView":26,
			"componentType":5126,
			"count":542,
			"type":"VEC2"
		},
		{
			"bufferView":27,
			"componentType":5123,
			"count":756,
			"type":"SCALAR"
		},
		{
			"bufferView":28,
			"componentType":5126,
			"count":542,
			"max":[
				0.21436476707458496,
				1.0453323125839233,
				0.21399269998073578
			],
			"min":[
				-0.19432996213436127,
				-4.030577838420868e-05,
				-0.2059388905763626
			],
			"type":"VEC3"
		},
		{
			"bufferView":29,
			"componentType":5126,
			"count":542,
			"type":"VEC3"
		},
		{
			"bufferView":30,
			"componentType":5126,
			"count":542,
			"type":"VEC2"
		},
		{
			"bufferView":31,
			"componentType":5123,
			"count":756,
			"type":"SCALAR"
		},
		{
			"bufferView":32,
			"componentType":5126,
			"count":542,
			"max":[
				0.25243645906448364,
				1.011309027671814,
				0.2380109578371048
			],
			"min":[
				-0.2538340091705322,
				-4.030577838420868e-05,
				-0.2547452747821808
			],
			"type":"VEC3"
		},
		{
			"bufferView":33,
			"componentType":5126,
			"count":542,
			"type":"VEC3"
		},
		{
			"bufferView":34,
			"componentType":5126,
			"count":542,
			"type":"VEC2"
		},
		{
			"bufferView":35,
			"componentType":5123,
			"count":756,
			"type":"SCALAR"
		},
		{
			"bufferView":36,
			"componentType":5126,
			"count":268,
			"max":[
				0.04502984881401062,
				0.1424744576215744,
				0.29583463072776794
			],
			"min":[
				-0.04139535129070282,
				0.00033105083275586367,
				-0.008677788078784943
			],
			"type":"VEC3"
		},
		{
			"bufferView":37,
			"componentType":5126,
			"count":268,
			"type":"VEC3"
		},
		{
			"bufferView":38,
			"componentType":5126,
			"count":268,
			"type":"VEC2"
		},
		{
			"bufferView":39,
			"componentType":5123,
			"count":414,
			"type":"SCALAR"
		},
		{
			"bufferView":40,
			"componentType":5126,
			"count":482,
			"max":[
				0.22301268577575684,
				1.0593276023864746,
				0.2207183837890625
			],
			"min":[
				-0.20605531334877014,
				-7.927285494702119e-09,
				-0.22122323513031006
			],
			"type":"VEC3"
		},
		{
			"bufferView":41,
			"componentType":5126,
			"count":482,
			"type":"VEC3"
		},
		{
			"bufferView":42,
			"componentType":5126,
			"count":482,
			"type":"VEC2"
		},
		{
			"bufferView":43,
			"componentType":5123,
			"count":1074,
			"type":"SCALAR"
		},
		{
			"bufferView":44,
			"componentType":5126,
			"count":253,
			"max":[
				0.7238699793815613,
				0.9463308453559875,
				0.9022657871246338
			],
			"min":[
				-0.45096293091773987,
				-6.424036058660931e-08,
				-0.8142523169517517
			],
			"type":"VEC3"
		},
		{
			"bufferView":45,
			"componentType":5126,
			"count":253,
			"type":"VEC3"
		},
		{
			"bufferView":46,
			"componentType":5126,
			"count":253,
			"type":"VEC2"
		},
		{
			"bufferView":47,
			"componentType":5123,
			"count":486,
			"type":"SCALAR"
		},
		{
			"bufferView":48,
			"componentType":5126,
			"count":914,
			"max":[
				0.6906619668006897,
				1.4226036071777344,
				0.4782983660697937
			],
			"min":[
				-0.41958391666412354,
				0.033649563789367676,
				-0.28750079870224
			],
			"type":"VEC3"
		},
		{
			"bufferView":49,
			"componentType":5126,
			"count":914,
			"type":"VEC3"
		},
		{
			"bufferView":50,
			"componentType":5126,
			"count":914,
			"type":"VEC2"
		},
		{
			"bufferView":51,
			"componentType":5123,
			"count":1380,
			"type":"SCALAR"
		},
		{
			"bufferView":52,
			"componentType":5126,
			"count":962,
			"max":[
				0.34770289063453674,
				1.5343611240386963,
				1.0242807865142822
			],
			"min":[
				-0.3515283763408661,
				0.0009787252638489008,
				0.3058261275291443
			],
			"type":"VEC3"
		},
		{
			"bufferView":53,
			"componentType":5126,
			"count":962,
			"type":"VEC3"
		},
		{
			"bufferView":54,
			"componentType":5126,
			"count":962,
			"type":"VEC2"
		},
		{
			"bufferView":55,
			"componentType":5121,
			"count":962,
			"type":"VEC4"
		},
		{
			"bufferView":56,
			"componentType":5126,
			"count":962,
			"type":"VEC4"
		},
		{
			"bufferView":57,
			"componentType":5123,
			"count":1452,
			"type":"SCALAR"
		},
		{
			"bufferView":58,
			"componentType":5126,
			"count":5,
			"type":"MAT4"
		},
		{
			"bufferView":59,
			"componentType":5126,
			"count":24,
			"max":[
				0.25,
				0.25,
				0.25
			],
			"min":[
				-0.25,
				-0.25,
				-0.25
			],
			"type":"VEC3"
		},
		{
			"bufferView":60,
			"componentType":5126,
			"count":24,
			"type":"VEC3"
		},
		{
			"bufferView":61,
			"componentType":5126,
			"count":24,
			"type":"VEC2"
		},
		{
			"bufferView":62,
			"componentType":5123,
			"count":36,
			"type":"SCALAR"
		},
		{
			"bufferView":63,
			"componentType":5126,
			"count":200,
			"max":[
				0.08895605057477951,
				0.14204290509223938,
				0.5341693758964539
			],
			"min":[
				-0.18857449293136597,
				-0.13325361907482147,
				-0.5227352380752563
			],
			"type":"VEC3"
		},
		{
			"bufferView":64,
			"componentType":5126,
			"count":200,
			"type":"VEC3"
		},
		{
			"bufferView":65,
			"componentType":5126,
			"count":200,
			"type":"VEC2"
		},
		{
			"bufferView":66,
			"componentType":5123,
			"count":864,
			"type":"SCALAR"
		},
		{
			"bufferView":67,
			"componentType":5126,
			"count":1144,
			"max":[
				0.11563306301832199,
				0.18138520419597626,
				0.5681914687156677
			],
			"min":[
				-0.20147809386253357,
				-0.24688135087490082,
				-0.564479410648346
			],
			"type":"VEC3"
		},
		{
			"bufferView":68,
			"componentType":5126,
			"count":1144,
			"type":"VEC3"
		},
		{
			"bufferView":69,
			"componentType":5126,
			"count":1144,
			"type":"VEC2"
		},
		{
			"bufferView":70,
			"componentType":5123,
			"count":4035,
			"type":"SCALAR"
		},
		{
			"bufferView":71,
			"componentType":5126,
			"count":2,
			"max":[
				0.8333333333333334
			],
			"min":[
				0
			],
			"type":"SCALAR"
		},
		{
			"bufferView":72,
			"componentType":5126,
			"count":2,
			"type":"VEC3"
		},
		{
			"bufferView":73,
			"componentType":5126,
			"count":21,
			"max":[
				0.8333333333333334
			],
			"min":[
				0
			],
			"type":"SCALAR"
		},
		{
			"bufferView":74,
			"componentType":5126,
			"count":21,
			"type":"VEC4"
		},
		{
			"bufferView":75,
			"componentType":5126,
			"count":2,
			"type":"VEC3"
		},
		{
			"bufferView":76,
			"componentType":5126,
			"count":2,
			"type":"VEC3"
		},
		{
			"bufferView":77,
			"componentType":5126,
			"count":2,
			"type":"VEC4"
		},
		{
			"bufferView":78,
			"componentType":5126,
			"count":2,
			"type":"VEC3"
		},
		{
			"bufferView":79,
			"componentType":5126,
			"count":2,
			"type":"VEC3"
		},
		{
			"bufferView":80,
			"componentType":5126,
			"count":21,
			"type":"VEC4"
		},
		{
			"bufferView":81,
			"componentType":5126,
			"count":2,
			"type":"VEC3"
		},
		{
			"bufferView":82,
			"componentType":5126,
			"count":2,
			"type":"VEC3"
		},
		{
			"bufferView":83,
			"componentType":5126,
			"count":2,
			"type":"VEC4"
		},
		{
			"bufferView":84,
			"componentType":5126,
			"count":2,
			"type":"VEC3"
		}
	],
	"bufferViews":[
		{
			"buffer":0,
			"byteLength":24480,
			"byteOffset":0,
			"target":34962
		},
		{
			"buffer":0,
			"byteLength":24480,
			"byteOffset":24480,
			"target":34962
		},
		{
			"buffer":0,
			"byteLength":16320,
			"byteOffset":48960,
			"target":34962
		},
		{
			"buffer":0,
			"byteLength":6888,
			"byteOffset":65280,
			"target":34963
		},
		{
			"buffer":0,
			"byteLength":19440,
			"byteOffset":72168,
			"target":34962
		},
		{
			"buffer":0,
			"byteLength":19440,
			"byteOffset":91608,
			"target":34962
		},
		{
			"buffer":0,
			"byteLength":12960,
			"byteOffset":111048,
			"target":34962
		},
		{
			"buffer":0,
			"byteLength":5664,
			"byteOffset":124008,
			"target":34963
		},
		{
			"buffer":0,
			"byteLength":19440,
			"byteOffset":129672,
			"target":34962
		},
		{
			"buffer":0,
			"byteLength":19440,
			"byteOffset":149112,
			"target":34962
		},
		{
			"buffer":0,
			"byteLength":12960,
			"byteOffset":168552,
			"target":34962
		},
		{
			"buffer":0,
			"byteLength":5664,
			"byteOffset":181512,
			"target":34963
		},
		{
			"buffer":0,
			"byteLength":23160,
			"byteOffset":187176,
			"target":34962
		},
		{
			"buffer":0,
			"byteLength":23160,
			"byteOffset":210336,
			"target":34962
		},
		{
			"buffer":0,
			"byteLength":15440,
			"byteOffset":233496,
			"target":34962
		},
		{
			"buffer":0,
			"byteLength":6504,
			"byteOffset":248936,
			"target":34963
		},
		{
			"buffer":0,
			"byteLength":25968,
			"byteOffset":255440,
			"target":34962
		},
		{
			"buffer":0,
			"byteLength":25968,
			"byteOffset":281408,
			"target":34962
		},
		{
			"buffer":0,
			"byteLength":17312,
			"byteOffset":307376,
			"target":34962
		},
		{
			"buffer":0,
			"byteLength":7560,
			"byteOffset":324688,
			"target":34963
		},
		{
			"buffer":0,
			"byteLength":11928,
			"byteOffset":332248,
			"target":34962
		},
		{
			"buffer":0,
			"byteLength":11928,
			"byteOffset":344176,
			"target":34962
		},
		{
			"buffer":0,
			"byteLength":7952,
			"byteOffset":356104,
			"target":34962
		},
		{
			"buffer":0,
			"byteLength":2760,
			"byteOffset":364056,
			"target":34963
		},
		{
			"buffer":0,
			"byteLength":6504,
			"byteOffset":366816,
			"target":34962
		},
		{
			"buffer":0,
			"byteLength":6504,
			"byteOffset":373320,
			"target":34962
		},
		{
			"buffer":0,
			"byteLength":4336,
			"byteOffset":379824,
			"target":34962
		},
		{
			"buffer":0,
			"byteLength":1512,
			"byteOffset":384160,
			"target":34963
		},
		{
			"buffer":0,
			"byteLength":6504,
			"byteOffset":385672,
			"target":34962
		},
		{
			"buffer":0,
			"byteLength":6504,
			"byteOffset":392176,
			"target":34962
		},
		{
			"buffer":0,
			"byteLength":4336,
			"byteOffset":398680,
			"target":34962
		},
		{
			"buffer":0,
			"byteLength":1512,
			"byteOffset":403016,
			"target":34963
		},
		{
			"buffer":0,
			"byteLength":6504,
			"byteOffset":404528,
			"target":34962
		},
		{
			"buffer":0,
			"byteLength":6504,
			"byteOffset":411032,
			"target":34962
		},
		{
			"buffer":0,
			"byteLength":4336,
			"byteOffset":417536,
			"target":34962
		},
		{
			"buffer":0,
			"byteLength":1512,
			"byteOffset":421872,
			"target":34963
		},
		{
			"buffer":0,
			"byteLength":3216,
			"byteOffset":423384,
			"target":34962
		},
		{
			"buffer":0,
			"byteLength":3216,
			"byteOffset":426600,
			"target":34962
		},
		{
			"buffer":0,
			"byteLength":2144,
			"byteOffset":429816,
			"target":34962
		},
		{
			"buffer":0,
			"byteLength":828,
			"byteOffset":431960,
			"target":34963
		},
		{
			"buffer":0,
			"byteLength":5784,
			"byteOffset":432788,
			"target":34962
		},
		{
			"buffer":0,
			"byteLength":5784,
			"byteOffset":438572,
			"target":34962
		},
		{
			"buffer":0,
			"byteLength":3856,
			"byteOffset":444356,
			"target":34962
		},
		{
			"buffer":0,
			"byteLength":2148,
			"byteOffset":448212,
			"target":34963
		},
		{
			"buffer":0,
			"byteLength":3036,
			"byteOffset":450360,
			"target":34962
		},
		{
			"buffer":0,
			"byteLength":3036,
			"byteOffset":453396,
			"target":34962
		},
		{
			"buffer":0,
			"byteLength":2024,
			"byteOffset":456432,
			"target":34962
		},
		{
			"buffer":0,
			"byteLength":972,
			"byteOffset":458456,
			"target":34963
		},
		{
			"buffer":0,
			"byteLength":10968,
			"byteOffset":459428,
			"target":34962
		},
		{
			"buffer":0,
			"byteLength":10968,
			"byteOffset":470396,
			"target":34962
		},
		{
			"buffer":0,
			"byteLength":7312,
			"byteOffset":481364,
			"target":34962
		},
		{
			"buffer":0,
			"byteLength":2760,
			"byteOffset":488676,
			"target":34963
		},
		{
			"buffer":0,
			"byteLength":11544,
			"byteOffset":491436,
			"target":34962
		},
		{
			"buffer":0,
			"byteLength":11544,
			"byteOffset":502980,
			"target":34962
		},
		{
			"buffer":0,
			"byteLength":7696,
			"byteOffset":514524,
			"target":34962
		},
		{
			"buffer":0,
			"byteLength":3848,
			"byteOffset":522220,
			"target":34962
		},
		{
			"buffer":0,
			"byteLength":15392,
			"byteOffset":526068,
			"target":34962
		},
		{
			"buffer":0,
			"byteLength":2904,
			"byteOffset":541460,
			"target":34963
		},
		{
			"buffer":0,
			"byteLength":320,
			"byteOffset":544364
		},
		{
			"buffer":0,
			"byteLength":288,
			"byteOffset":544684,
			"target":34962
		},
		{
			"buffer":0,
			"byteLength":288,
			"byteOffset":544972,
			"target":34962
		},
		{
			"buffer":0,
			"byteLength":192,
			"byteOffset":545260,
			"target":34962
		},
		{
			"buffer":0,
			"byteLength":72,
			"byteOffset":545452,
			"target":34963
		},
		{
			"buffer":0,
			"byteLength":2400,
			"byteOffset":545524,
			"target":34962
		},
		{
			"buffer":0,
			"byteLength":2400,
			"byteOffset":547924,
			"target":34962
		},
		{
			"buffer":0,
			"byteLength":1600,
			"byteOffset":550324,
			"target":34962
		},
		{
			"buffer":0,
			"byteLength":1728,
			"byteOffset":551924,
			"target":34963
		},
		{
			"buffer":0,
			"byteLength":13728,
			"byteOffset":553652,
			"target":34962
		},
		{
			"buffer":0,
			"byteLength":13728,
			"byteOffset":567380,
			"target":34962
		},
		{
			"buffer":0,
			"byteLength":9152,
			"byteOffset":581108,
			"target":34962
		},
		{
			"buffer":0,
			"byteLength":8070,
			"byteOffset":590260,
			"target":34963
		},
		{
			"buffer":0,
			"byteLength":8,
			"byteOffset":598332
		},
		{
			"buffer":0,
			"byteLength":24,
			"byteOffset":598340
		},
		{
			"buffer":0,
			"byteLength":84,
			"byteOffset":598364
		},
		{
			"buffer":0,
			"byteLength":336,
			"byteOffset":598448
		},
		{
			"buffer":0,
			"byteLength":24,
			"byteOffset":598784
		},
		{
			"buffer":0,
			"byteLength":24,
			"byteOffset":598808
		},
		{
			"buffer":0,
			"byteLength":32,
			"byteOffset":598832
		},
		{
			"buffer":0,
			"byteLength":24,
			"byteOffset":598864
		},
		{
			"buffer":0,
			"byteLength":24,
			"byteOffset":598888
		},
		{
			"buffer":0,
			"byteLength":336,
			"byteOffset":598912
		},
		{
			"buffer":0,
			"byteLength":24,
			"byteOffset":599248
		},
		{
			"buffer":0,
			"byteLength":24,
			"byteOffset":599272
		},
		{
			"buffer":0,
			"byteLength":32,
			"byteOffset":599296
		},
		{
			"buffer":0,
			"byteLength":24,
			"byteOffset":599328
		}
	],
	"samplers":[
		{
			"magFilter":9729,
			"minFilter":9987
		}
	],
	"buffers":[
		{
			"byteLength":599352,
			"uri":"drums.bin"
		}
	]
}
